<svg width="10" height="6" viewBox="0 0 10 6" fill="none" xmlns="http://www.w3.org/2000/svg">
<g clip-path="url(#clip0)">
<path fill-rule="evenodd" clip-rule="evenodd" d="M5.70623 2.79358C5.31572 3.18406 4.6826 3.18406 4.29209 2.79358L1.87457 0.376291C1.52947 0.0312206 0.969966 0.0312205 0.624866 0.376301C0.279716 0.72141 0.279716 1.281 0.624866 1.62612L4.37433 5.37523C4.71944 5.7203 5.27892 5.7203 5.62403 5.37523L6.24899 4.75033C6.249 4.75032 6.249 4.75031 6.24899 4.7503L6.24899 4.75028L9.37493 1.62463C9.72008 1.27952 9.72008 0.719932 9.37493 0.374812C9.02982 0.0297416 8.47033 0.0297415 8.12523 0.374812L5.70623 2.79358Z" fill="#9C69E2"/>
</g>
<defs>
<clipPath id="clip0">
<rect width="10" height="6" fill="white" transform="translate(10 6) rotate(-180)"/>
</clipPath>
</defs>
</svg>
